<?xml version="1.0" encoding="utf-8"?>
<!-- Generator: Adobe Illustrator 21.0.2, SVG Export Plug-In . SVG Version: 6.00 Build 0)  -->
<svg version="1.1" id="Capa_1" xmlns="http://www.w3.org/2000/svg" xmlns:xlink="http://www.w3.org/1999/xlink" x="0px" y="0px"
	 width="2000px" height="800px" viewBox="0 0 2000 800" style="enable-background:new 0 0 2000 800;" xml:space="preserve">
<style type="text/css">
	.st0{clip-path:url(#SVGID_4_);}
	.st1{fill:#FFFFFF;}
	.st2{clip-path:url(#SVGID_6_);}
	.st3{clip-path:url(#SVGID_10_);}
	.st4{clip-path:url(#SVGID_12_);}
	.st5{font-family:'ProductSans-Bold';}
	.st6{font-size:394.2486px;}
	.st7{clip-path:url(#SVGID_14_);}
	.st8{clip-path:url(#SVGID_18_);}
	.st9{clip-path:url(#SVGID_20_);}
	.st10{clip-path:url(#SVGID_22_);}
	.st11{clip-path:url(#SVGID_26_);}
	.st12{clip-path:url(#SVGID_28_);}
	.st13{clip-path:url(#SVGID_30_);}
</style>
<g>
	<g>
		<defs>
			<rect id="SVGID_1_" x="524.9" y="251.6" width="1347.9" height="415.6"/>
		</defs>
		<clipPath id="SVGID_2_">
			<use xlink:href="#SVGID_1_"  style="overflow:visible;"/>
		</clipPath>
		<g style="clip-path:url(#SVGID_2_);">
			
				<image style="overflow:visible;" width="253" height="78" xlink:href="7A5FC0C1810B3A0C.png"  transform="matrix(5.3277 0 0 5.3277 524.9124 251.6045)">
			</image>
		</g>
	</g>
	<g>
		<defs>
			<rect id="SVGID_3_" x="508.9" y="161" width="1390.5" height="522.1"/>
		</defs>
		<clipPath id="SVGID_4_">
			<use xlink:href="#SVGID_3_"  style="overflow:visible;"/>
		</clipPath>
		<g class="st0">
			<text transform="matrix(1 0 0 1 -2250.8115 549.9551)"><tspan x="0" y="0" class="st1 st5 st6">i</tspan><tspan x="102.1" y="0" class="st1 st5 st6" style="letter-spacing:-3;">n</tspan><tspan x="324.9" y="0" class="st1 st5 st6" style="letter-spacing:-11;">f</tspan><tspan x="469.9" y="0" class="st1 st5 st6" style="letter-spacing:-1;">op</tspan><tspan x="928.8" y="0" class="st1 st5 st6">su</tspan></text>
		</g>
	</g>
	<g>
		<defs>
			<rect id="SVGID_5_" x="-1409" y="-2636" width="4960.1" height="4715"/>
		</defs>
		<clipPath id="SVGID_6_">
			<use xlink:href="#SVGID_5_"  style="overflow:visible;"/>
		</clipPath>
		<g class="st2">
			<path class="st1" d="M581.1,330.8c-4.5,0-8.7-0.9-12.8-2.6c-4.1-1.7-7.6-4.1-10.6-7.1c-3-3-5.4-6.5-7.1-10.4
				c-1.7-3.9-2.6-8.3-2.6-13c0-4.7,0.9-9.1,2.6-13c1.7-3.9,4.1-7.4,7.1-10.4c3-3,6.6-5.4,10.6-7.1c4.1-1.7,8.3-2.6,12.8-2.6
				c9.2,0,17.1,3.2,23.7,9.7c6.6,6.4,9.9,14.3,9.9,23.5c0,9.2-3.3,17-9.9,23.5C598.2,327.5,590.3,330.8,581.1,330.8z M555.5,550
				V356.8h51.6V550H555.5z"/>
			<path class="st1" d="M702.9,382h3.2c6-9.7,14.2-17.4,24.4-23.1c10.3-5.7,21.9-8.5,35.1-8.5c12.1,0,22.7,2,31.9,5.9
				c9.2,3.9,16.8,9.5,22.7,16.8c5.9,7.2,10.4,15.9,13.4,26c3,10.1,4.5,21.4,4.5,33.7V550h-51.6V439.2c0-13.9-3.1-24.2-9.3-30.9
				c-6.2-6.7-15.2-10.1-27-10.1c-7.1,0-13.3,1.5-18.7,4.5c-5.4,3-10,7.1-13.8,12.2c-3.8,5.1-6.7,11.2-8.7,18.1c-2,7-3,14.4-3,22.3
				V550h-51.6V356.8h48.5V382z"/>
			<path class="st1" d="M972.6,264.5c7.4,0,14.2,0.7,20.5,2c6.3,1.3,12,3,17,5.1l-14.6,46.1c-2.6-1.3-5.5-2.4-8.5-3.2
				c-3-0.8-6.8-1.2-11.2-1.2c-7.6,0-13.7,2.4-18.1,7.3c-4.5,4.9-6.7,11.6-6.7,20.3v15.8H999v44.2h-48.1v149h-51.6v-149h-34.7v-44.2
				h34.7v-18.9c0-11.8,1.8-22.3,5.3-31.3c3.5-9.1,8.6-16.7,15.2-22.9c6.6-6.2,14.3-10.9,23.3-14.2
				C951.9,266.2,961.8,264.5,972.6,264.5z"/>
			<path class="st1" d="M1113.7,350.5c15,0,28.7,2.6,41.2,7.7c12.5,5.1,23.3,12.2,32.3,21.3c9.1,9.1,16.2,19.9,21.3,32.5
				c5.1,12.6,7.7,26.4,7.7,41.4c0,15-2.6,28.8-7.7,41.4c-5.1,12.6-12.2,23.5-21.3,32.5c-9.1,9.1-19.8,16.2-32.3,21.3
				c-12.5,5.1-26.2,7.7-41.2,7.7c-15,0-28.7-2.6-41.2-7.7c-12.5-5.1-23.3-12.2-32.3-21.3c-9.1-9.1-16.2-19.9-21.3-32.5
				c-5.1-12.6-7.7-26.4-7.7-41.4c0-15,2.6-28.8,7.7-41.4c5.1-12.6,12.2-23.5,21.3-32.5c9.1-9.1,19.8-16.2,32.3-21.3
				C1085,353,1098.7,350.5,1113.7,350.5z M1113.7,508.6c6.6,0,12.9-1.2,19.1-3.7c6.2-2.5,11.6-6.1,16.4-10.8
				c4.7-4.7,8.5-10.5,11.2-17.3c2.8-6.8,4.1-14.6,4.1-23.3s-1.4-16.4-4.1-23.3c-2.8-6.8-6.5-12.6-11.2-17.3
				c-4.7-4.7-10.2-8.3-16.4-10.8c-6.2-2.5-12.6-3.7-19.1-3.7c-6.8,0-13.3,1.3-19.3,3.7c-6,2.5-11.4,6.1-16.2,10.8
				c-4.7,4.7-8.5,10.5-11.2,17.3c-2.8,6.8-4.1,14.6-4.1,23.3s1.4,16.4,4.1,23.3c2.8,6.8,6.5,12.6,11.2,17.3
				c4.7,4.7,10.1,8.3,16.2,10.8C1100.4,507.3,1106.9,508.6,1113.7,508.6z"/>
			<path class="st1" d="M1246.2,356.8h48.5V380h3.2c4.7-8.1,12.1-15.1,22.1-20.9c10-5.8,22.3-8.7,37.1-8.7c12.4,0,24.1,2.6,35.3,7.7
				c11.2,5.1,21,12.2,29.6,21.3c8.5,9.1,15.3,19.9,20.3,32.5c5,12.6,7.5,26.4,7.5,41.4c0,15-2.5,28.8-7.5,41.4
				c-5,12.6-11.8,23.5-20.3,32.5c-8.5,9.1-18.4,16.2-29.6,21.3c-11.2,5.1-22.9,7.7-35.3,7.7c-14.7,0-27.1-2.9-37.1-8.7
				c-10-5.8-17.3-12.7-22.1-20.9h-3.2l3.2,27.6v80.8h-51.6V356.8z M1346.3,508.6c6.8,0,13.3-1.3,19.5-3.9c6.2-2.6,11.6-6.3,16.4-11
				c4.7-4.7,8.5-10.5,11.4-17.3c2.9-6.8,4.3-14.5,4.3-22.9c0-8.4-1.4-16-4.3-22.9c-2.9-6.8-6.7-12.6-11.4-17.3
				c-4.7-4.7-10.2-8.4-16.4-11c-6.2-2.6-12.7-3.9-19.5-3.9c-6.8,0-13.3,1.3-19.5,3.7c-6.2,2.5-11.6,6.1-16.4,10.8
				c-4.7,4.7-8.5,10.5-11.4,17.3c-2.9,6.8-4.3,14.6-4.3,23.3s1.4,16.4,4.3,23.3c2.9,6.8,6.7,12.6,11.4,17.3
				c4.7,4.7,10.2,8.3,16.4,10.8C1333,507.3,1339.5,508.6,1346.3,508.6z"/>
			<path class="st1" d="M1557.6,556.3c-12.6,0-23.9-1.6-33.7-4.7c-9.9-3.2-18.4-7.3-25.6-12.4c-7.2-5.1-13.3-11-18.3-17.7
				c-5-6.7-8.8-13.5-11.4-20.3l46.1-19.7c4.5,10,10.4,17.4,17.9,22.3c7.5,4.9,15.8,7.3,25,7.3c9.5,0,17-1.7,22.5-5.1
				c5.5-3.4,8.3-7.5,8.3-12.2c0-5.3-2.3-9.5-6.9-12.8c-4.6-3.3-12.6-6.2-23.9-8.9l-27.2-5.9c-6-1.3-12.3-3.4-18.7-6.3
				c-6.4-2.9-12.3-6.6-17.5-11c-5.3-4.5-9.6-9.9-13-16.2c-3.4-6.3-5.1-13.7-5.1-22.1c0-9.5,2-17.9,6.1-25.2
				c4.1-7.4,9.7-13.6,16.8-18.7c7.1-5.1,15.4-9.1,25-11.8c9.6-2.8,19.9-4.1,30.9-4.1c18.4,0,34.8,3.6,49.3,10.8
				c14.5,7.2,25.1,18.7,31.9,34.5l-44.6,18.1c-3.7-7.6-9.1-13.1-16.2-16.6c-7.1-3.4-14.2-5.1-21.3-5.1c-7.4,0-13.8,1.5-19.3,4.5
				c-5.5,3-8.3,6.9-8.3,11.6c0,4.5,2.3,8,6.9,10.6c4.6,2.6,10.8,5,18.7,7.1l29.6,7.1c19.7,4.7,34.4,12.3,44,22.7
				c9.6,10.4,14.4,22.7,14.4,36.9c0,8.4-2,16.4-5.9,24.1c-3.9,7.6-9.5,14.4-16.8,20.3c-7.2,5.9-15.9,10.6-26,14
				C1581.2,554.5,1570,556.3,1557.6,556.3z"/>
			<path class="st1" d="M1805.2,524.7h-3.2c-6.1,9.7-14.2,17.4-24.4,23.1c-10.2,5.7-21.9,8.5-35.1,8.5c-24.4,0-42.6-7.5-54.6-22.5
				c-12-15-17.9-35-17.9-59.9V356.8h51.6v110.8c0,13.9,3.1,24.2,9.3,30.9c6.2,6.7,15.2,10.1,27,10.1c7.1,0,13.3-1.5,18.7-4.5
				c5.4-3,10-7.1,13.8-12.2c3.8-5.1,6.7-11.2,8.7-18.1c2-7,3-14.4,3-22.3v-94.6h51.6V550h-48.5V524.7z"/>
		</g>
	</g>
	<g>
		<defs>
			<rect id="SVGID_7_" x="189.3" y="288.9" width="330.3" height="111.9"/>
		</defs>
		<clipPath id="SVGID_8_">
			<use xlink:href="#SVGID_7_"  style="overflow:visible;"/>
		</clipPath>
		<g style="clip-path:url(#SVGID_8_);">
			
				<image style="overflow:visible;" width="62" height="21" xlink:href="7A5FC0C1810B3A0D.png"  transform="matrix(5.3277 0 0 5.3277 189.2684 288.8983)">
			</image>
		</g>
	</g>
	<g>
		<defs>
			<rect id="SVGID_9_" x="98.7" y="267.6" width="522.1" height="149.2"/>
		</defs>
		<clipPath id="SVGID_10_">
			<use xlink:href="#SVGID_9_"  style="overflow:visible;"/>
		</clipPath>
		<g class="st3">
			<defs>
				<rect id="SVGID_11_" x="-1409" y="-2636" width="4960.1" height="4715"/>
			</defs>
			<clipPath id="SVGID_12_">
				<use xlink:href="#SVGID_11_"  style="overflow:visible;"/>
			</clipPath>
			<g class="st4">
				<text transform="matrix(0 -1 1 0 487.6151 693.8057)" class="st1 st5 st6">i</text>
			</g>
		</g>
	</g>
	<g>
		<defs>
			<rect id="SVGID_13_" x="-1409" y="-2636" width="4960.1" height="4715"/>
		</defs>
		<clipPath id="SVGID_14_">
			<use xlink:href="#SVGID_13_"  style="overflow:visible;"/>
		</clipPath>
		<g class="st7">
			<path class="st1" d="M268.4,344.6c0,4.5-0.9,8.7-2.6,12.8c-1.7,4.1-4.1,7.6-7.1,10.6c-3,3-6.5,5.4-10.4,7.1
				c-3.9,1.7-8.3,2.6-13,2.6c-4.7,0-9.1-0.9-13-2.6c-3.9-1.7-7.4-4.1-10.4-7.1c-3-3-5.4-6.6-7.1-10.6c-1.7-4.1-2.6-8.3-2.6-12.8
				c0-9.2,3.2-17.1,9.7-23.7c6.4-6.6,14.3-9.9,23.5-9.9c9.2,0,17,3.3,23.5,9.9C265.2,327.5,268.4,335.4,268.4,344.6z M487.6,370.2
				H294.4v-51.6h193.2V370.2z"/>
		</g>
	</g>
	<g>
		<defs>
			<rect id="SVGID_15_" x="189.3" y="379.5" width="330.3" height="111.9"/>
		</defs>
		<clipPath id="SVGID_16_">
			<use xlink:href="#SVGID_15_"  style="overflow:visible;"/>
		</clipPath>
		<g style="clip-path:url(#SVGID_16_);">
			
				<image style="overflow:visible;" width="62" height="21" xlink:href="7A5FC0C1810B3A0B.png"  transform="matrix(5.3277 0 0 5.3277 189.2684 379.4689)">
			</image>
		</g>
	</g>
	<g>
		<defs>
			<rect id="SVGID_17_" x="98.7" y="358.2" width="522.1" height="149.2"/>
		</defs>
		<clipPath id="SVGID_18_">
			<use xlink:href="#SVGID_17_"  style="overflow:visible;"/>
		</clipPath>
		<g class="st8">
			<defs>
				<rect id="SVGID_19_" x="-1409" y="-2636" width="4960.1" height="4715"/>
			</defs>
			<clipPath id="SVGID_20_">
				<use xlink:href="#SVGID_19_"  style="overflow:visible;"/>
			</clipPath>
			<g class="st9">
				<text transform="matrix(0 -1 1 0 487.6151 784.375)" class="st1 st5 st6">i</text>
			</g>
		</g>
	</g>
	<g>
		<defs>
			<rect id="SVGID_21_" x="-1409" y="-2636" width="4960.1" height="4715"/>
		</defs>
		<clipPath id="SVGID_22_">
			<use xlink:href="#SVGID_21_"  style="overflow:visible;"/>
		</clipPath>
		<g class="st10">
			<path class="st1" d="M268.4,435.2c0,4.5-0.9,8.7-2.6,12.8c-1.7,4.1-4.1,7.6-7.1,10.6c-3,3-6.5,5.4-10.4,7.1
				c-3.9,1.7-8.3,2.6-13,2.6c-4.7,0-9.1-0.9-13-2.6c-3.9-1.7-7.4-4.1-10.4-7.1c-3-3-5.4-6.6-7.1-10.6c-1.7-4.1-2.6-8.3-2.6-12.8
				c0-9.2,3.2-17.1,9.7-23.7c6.4-6.6,14.3-9.9,23.5-9.9c9.2,0,17,3.3,23.5,9.9C265.2,418.1,268.4,426,268.4,435.2z M487.6,460.8
				H294.4v-51.6h193.2V460.8z"/>
		</g>
	</g>
	<g>
		<defs>
			<rect id="SVGID_23_" x="189.3" y="470" width="330.3" height="111.9"/>
		</defs>
		<clipPath id="SVGID_24_">
			<use xlink:href="#SVGID_23_"  style="overflow:visible;"/>
		</clipPath>
		<g style="clip-path:url(#SVGID_24_);">
			
				<image style="overflow:visible;" width="62" height="21" xlink:href="7A5FC0C1810B3A14.png"  transform="matrix(5.3277 0 0 5.3277 189.2684 470.0396)">
			</image>
		</g>
	</g>
	<g>
		<defs>
			<rect id="SVGID_25_" x="98.7" y="448.7" width="522.1" height="149.2"/>
		</defs>
		<clipPath id="SVGID_26_">
			<use xlink:href="#SVGID_25_"  style="overflow:visible;"/>
		</clipPath>
		<g class="st11">
			<defs>
				<rect id="SVGID_27_" x="-1409" y="-2636" width="4960.1" height="4715"/>
			</defs>
			<clipPath id="SVGID_28_">
				<use xlink:href="#SVGID_27_"  style="overflow:visible;"/>
			</clipPath>
			<g class="st12">
				<text transform="matrix(0 -1 1 0 487.6151 874.9453)" class="st1 st5 st6">i</text>
			</g>
		</g>
	</g>
	<g>
		<defs>
			<rect id="SVGID_29_" x="-1409" y="-2636" width="4960.1" height="4715"/>
		</defs>
		<clipPath id="SVGID_30_">
			<use xlink:href="#SVGID_29_"  style="overflow:visible;"/>
		</clipPath>
		<g class="st13">
			<path class="st1" d="M268.4,525.7c0,4.5-0.9,8.7-2.6,12.8c-1.7,4.1-4.1,7.6-7.1,10.6c-3,3-6.5,5.4-10.4,7.1
				c-3.9,1.7-8.3,2.6-13,2.6c-4.7,0-9.1-0.9-13-2.6c-3.9-1.7-7.4-4.1-10.4-7.1c-3-3-5.4-6.6-7.1-10.6c-1.7-4.1-2.6-8.3-2.6-12.8
				c0-9.2,3.2-17.1,9.7-23.7c6.4-6.6,14.3-9.9,23.5-9.9c9.2,0,17,3.3,23.5,9.9C265.2,508.7,268.4,516.5,268.4,525.7z M487.6,551.4
				H294.4v-51.6h193.2V551.4z"/>
		</g>
	</g>
</g>
</svg>
